<svg width="300" height="70" viewBox="0 0 300 70" fill="none" xmlns="http://www.w3.org/2000/svg">
<g clip-path="url(#clip0_58_19382)">
<path d="M89.3768 68.7128H97.6814L80.1365 19.2656H71.4388L53.8828 68.7128H62.1874L65.6972 58.8234H85.8563L89.3768 68.7128ZM68.6244 50.5803L75.7786 30.4188L82.9364 50.5803H68.6244Z" fill="black"/>
<path d="M138.462 19.2656H129.513L118.31 40.8569L107.111 19.2656H98.1621L114.462 50.6881V68.7128H122.162V50.6881L138.462 19.2656Z" fill="black"/>
<path d="M143.395 19.2656V27.5047H156.385V68.7128H164.085V27.5047H177.075V19.2656H143.395Z" fill="black"/>
<path d="M205.468 26.9483C208.421 26.9483 211.307 27.9478 213.761 29.8206C216.216 31.6934 218.129 34.3552 219.259 37.4696C220.389 40.5839 220.685 44.0107 220.108 47.317C219.532 50.6229 218.111 53.6599 216.023 56.0434C213.936 58.4269 211.276 60.0503 208.38 60.708C205.485 61.3657 202.483 61.0281 199.756 59.7382C197.028 58.4482 194.697 56.2636 193.057 53.4608C191.416 50.6579 190.541 47.3628 190.541 43.992C190.541 39.4716 192.114 35.1363 194.913 31.9402C197.713 28.7439 201.509 26.9483 205.468 26.9483ZM205.468 18.1562C200.995 18.1562 196.622 19.6707 192.903 22.5082C189.184 25.3457 186.285 29.3787 184.573 34.0972C182.861 38.8158 182.413 44.0079 183.286 49.0173C184.159 54.0265 186.313 58.6277 189.476 62.2391C192.639 65.8504 196.669 68.31 201.056 69.3062C205.443 70.3027 209.99 69.7914 214.123 67.8368C218.256 65.8823 221.788 62.5725 224.273 58.3261C226.758 54.0793 228.085 49.0867 228.085 43.9793C228.085 37.1307 225.702 30.5624 221.46 25.7197C217.219 20.8769 211.466 18.1562 205.468 18.1562Z" fill="black"/>
<path d="M275.24 68.7128H267.55H267.539V68.6921L247.33 34.8793V68.7128H239.633V19.2656H247.318H247.33V19.2822L267.539 53.0952V19.2656H275.24V68.7128Z" fill="black"/>
<path d="M297.854 19.2656H290.156V68.7128H297.854V19.2656Z" fill="black"/>
<path d="M43.3075 19.2656H35.6074V68.7128H43.3075V19.2656Z" fill="black"/>
<path d="M0 68.7128H7.70024V34.4634L21.6553 57.123L31.7584 40.7157V25.4304L21.6553 41.842L7.75121 19.2656H7.70024H0" fill="black"/>
<path d="M299.779 7.1711C299.779 8.47504 299.44 9.74974 298.806 10.8339C298.169 11.9181 297.269 12.7632 296.213 13.2622C295.158 13.7612 293.997 13.8918 292.876 13.6374C291.756 13.383 290.728 12.7551 289.922 11.833C289.112 10.911 288.563 9.73622 288.34 8.45732C288.116 7.17842 288.232 5.85278 288.668 4.64808C289.107 3.44338 289.845 2.41368 290.796 1.68924C291.744 0.964795 292.862 0.578125 294.003 0.578125C294.761 0.578125 295.511 0.748655 296.213 1.07998C296.915 1.41131 297.549 1.89694 298.087 2.50916C298.622 3.12137 299.049 3.84817 299.338 4.64808C299.629 5.44795 299.779 6.30529 299.779 7.1711Z" fill="black"/>
</g>
<defs>
<clipPath id="clip0_58_19382">
<rect width="300" height="70" fill="white"/>
</clipPath>
</defs>
</svg>
