<svg width="300" height="30" viewBox="0 0 300 30" fill="none" xmlns="http://www.w3.org/2000/svg">
<mask id="mask0_58_19367" style="mask-type:luminance" maskUnits="userSpaceOnUse" x="0" y="0" width="300" height="30">
<path d="M300 0H0V30H300V0Z" fill="white"/>
</mask>
<g mask="url(#mask0_58_19367)">
<path d="M2.78525 23.1103C4.02753 24.2038 5.52014 25.0785 7.17477 25.6825C9.11229 26.4094 11.2187 26.7695 13.3428 26.7371C15.4673 26.8489 17.5732 26.3462 19.3052 25.3138C19.9618 24.8857 20.4895 24.3357 20.8464 23.7076C21.2034 23.0794 21.3796 22.3905 21.3611 21.6956C21.3797 21.2397 21.2862 20.7855 21.0864 20.3608C20.8867 19.9361 20.5848 19.5501 20.1995 19.2263C19.3728 18.551 18.39 18.023 17.3108 17.6745C15.7659 17.1801 14.1909 16.7536 12.5924 16.397C10.5346 15.9363 8.51541 15.3634 6.54771 14.6822C5.01304 14.1233 3.65474 13.2752 2.57965 12.2043C1.42888 10.9874 0.841415 9.46573 0.924573 7.91739C0.899304 6.43426 1.45117 4.98424 2.49741 3.78478C3.59533 2.53941 5.07648 1.56475 6.78416 0.963979C8.66758 0.292454 10.6984 -0.0433914 12.7465 -0.022021C15.1371 -0.0507901 17.5059 0.358992 19.6855 1.17832C21.5842 1.87378 23.2943 2.88294 24.7124 4.14488L21.9266 6.46839C20.7713 5.51135 19.4161 4.73844 17.9276 4.18776C16.2528 3.55317 14.4319 3.23129 12.5924 3.24463C10.6567 3.17731 8.74645 3.63123 7.14396 4.53928C6.49221 4.91596 5.96305 5.42194 5.60414 6.01165C5.24523 6.60135 5.06784 7.25626 5.08796 7.91739C5.0698 8.36201 5.16073 8.80511 5.35518 9.21939C5.54963 9.63367 5.84349 10.0104 6.21876 10.3267C7.01867 10.9844 7.97948 11.4904 9.03545 11.8099C10.1594 12.17 11.7323 12.5959 13.7539 13.0875C15.8515 13.5492 17.9117 14.122 19.9219 14.8022C21.464 15.3584 22.8245 16.2138 23.89 17.2972C25.0464 18.5415 25.6332 20.0887 25.5451 21.6613C25.5897 22.7981 25.3253 23.9285 24.7716 24.9679C24.2179 26.0073 23.3894 26.9287 22.348 27.663C20.2098 29.1892 17.208 29.9437 13.2091 29.9437C10.7605 29.9624 8.33256 29.5679 6.0713 28.7841C3.81006 28.0002 1.76218 26.8431 0.0507812 25.3824L2.78525 23.1103Z" fill="#191919"/>
<path d="M65.8937 29.3538H60.6818L48.5515 16.6644H45.0974V29.3538H40.9648V0.648438H45.0974V13.475H48.5L60.7846 0.648438H65.6881L52.0055 14.8982L65.8937 29.3538Z" fill="#191919"/>
<path d="M102.748 2.50239C105.301 3.71646 107.401 5.4972 108.813 7.64672C110.258 9.92847 111.014 12.4699 111.014 15.0503C111.014 17.6307 110.258 20.1721 108.813 22.4538C107.406 24.6066 105.306 26.3884 102.748 27.5981C100.068 28.8376 97.044 29.4675 93.9795 29.4243H80.6152V0.650434H93.9795C97.0474 0.607851 100.074 1.24704 102.748 2.50239ZM93.9795 26.0805C96.3286 26.1194 98.6471 25.6308 100.692 24.6659C102.629 23.7312 104.217 22.3657 105.277 20.7219C106.402 18.9699 106.972 17.0073 106.932 15.0203C106.968 13.028 106.398 11.0607 105.277 9.30147C104.226 7.64757 102.637 6.27459 100.692 5.34034C98.6634 4.3799 96.3639 3.88858 94.0311 3.91708H84.7786V26.0805H93.9795Z" fill="#191919"/>
<path d="M147.507 0.648438V3.92366H130.145V13.3464H147.507V16.6216H130.145V26.0871H147.507V29.3538H126.012V0.648438H147.507Z" fill="#191919"/>
<path d="M163.872 23.1104C165.113 24.202 166.601 25.0764 168.251 25.6825C170.19 26.4062 172.296 26.7662 174.419 26.7371C176.541 26.8541 178.646 26.3509 180.371 25.3139C181.029 24.8867 181.558 24.3369 181.915 23.7085C182.272 23.0802 182.447 22.3909 182.427 21.6957C182.446 21.2398 182.352 20.7855 182.153 20.3609C181.953 19.9362 181.651 19.5501 181.266 19.2264C180.437 18.553 179.455 18.0252 178.377 17.6746C176.838 17.1825 175.27 16.7561 173.679 16.397C171.625 15.9366 169.609 15.3637 167.645 14.6823C166.108 14.1256 164.749 13.2771 163.677 12.2044C162.521 10.9897 161.933 9.46646 162.022 7.9175C161.996 6.43437 162.548 4.98434 163.594 3.78488C164.69 2.54072 166.167 1.56617 167.871 0.964069C169.751 0.292507 171.778 -0.0433649 173.823 -0.0219263C176.217 -0.0516751 178.589 0.358123 180.772 1.17842C182.67 1.87532 184.38 2.88429 185.799 4.14498L183.013 6.4685C181.858 5.51144 180.503 4.73853 179.014 4.18785C177.336 3.5523 175.512 3.23041 173.669 3.24472C171.74 3.16926 169.832 3.61422 168.231 4.51365C167.578 4.88978 167.048 5.39565 166.69 5.9855C166.331 6.57531 166.154 7.2305 166.175 7.89175C166.156 8.33722 166.248 8.78105 166.444 9.19562C166.64 9.61018 166.937 9.98648 167.316 10.301C168.116 10.9588 169.076 11.4647 170.132 11.7843C171.243 12.1444 172.815 12.5702 174.851 13.0618C176.949 13.5231 179.009 14.0958 181.019 14.7766C182.564 15.3325 183.928 16.1878 184.997 17.2716C186.15 18.517 186.733 20.0642 186.642 21.6357C186.689 22.7727 186.425 23.9038 185.872 24.9434C185.318 25.9831 184.488 26.9043 183.445 27.6374C181.307 29.1636 178.305 29.918 174.316 29.918C171.867 29.9392 169.439 29.5459 167.177 28.7619C164.915 27.9779 162.868 26.8195 161.158 25.3567L163.872 23.1104Z" fill="#191919"/>
<path d="M205.156 0.648438H201.023V29.3538H205.156V0.648438Z" fill="#191919"/>
<path d="M253.092 22.6798C251.779 24.9206 249.705 26.7901 247.129 28.0556C244.397 29.3778 241.282 30.0481 238.123 29.9933C234.913 30.0283 231.75 29.3444 228.965 28.0128C226.266 26.7268 224.03 24.8617 222.488 22.6112C220.93 20.2823 220.113 17.6599 220.113 14.9933C220.113 12.3267 220.93 9.70433 222.488 7.37542C224.032 5.12672 226.268 3.26217 228.965 1.97388C231.753 0.648774 234.914 -0.0319583 238.123 0.00188844C241.499 -0.0431559 244.821 0.718459 247.694 2.1968C250.44 3.58931 252.616 5.64291 253.935 8.08705H249.236C248.097 6.59061 246.5 5.37431 244.61 4.56319C242.615 3.68793 240.388 3.24287 238.134 3.26853C235.649 3.24405 233.201 3.77074 231.041 4.79468C228.947 5.79346 227.222 7.25265 226.055 9.01303C224.866 10.8582 224.244 12.9202 224.244 15.0147C224.244 17.1094 224.866 19.1713 226.055 21.0165C227.222 22.7769 228.947 24.236 231.041 25.2348C233.201 26.2587 235.649 26.7854 238.134 26.761C240.369 26.7928 242.578 26.3565 244.559 25.492C246.405 24.6631 247.941 23.4261 249 21.9167C250.093 20.2917 250.703 18.4717 250.778 16.6095H234.618V13.3428H254.788L254.942 14.9719C255.127 17.6337 254.49 20.2908 253.092 22.6884" fill="#191919"/>
<path d="M295.867 23.8236V0.648438H300V29.3538H295.867L274.043 6.14427V29.3538H269.91V0.648438H274.043L295.867 23.8236Z" fill="#191919"/>
</g>
</svg>
