<svg width="60" height="61" viewBox="0 0 60 61" fill="none" xmlns="http://www.w3.org/2000/svg">
<path fill-rule="evenodd" clip-rule="evenodd" d="M10.0059 0.015625H49.9941C55.4943 0.015625 60 4.52011 60 10.0213V50.0099C60 55.51 55.4943 60.0156 49.9941 60.0156H10.0059C4.50457 60.0156 0 55.51 0 50.0099V10.0213C0 4.52011 4.50457 0.015625 10.0059 0.015625Z" fill="url(#paint0_linear_101_19870)"/>
<path fill-rule="evenodd" clip-rule="evenodd" d="M44.1037 30.0207C44.1037 22.2301 37.7914 15.9179 30.0006 15.9179C22.2098 15.9179 15.8975 22.2301 15.8975 30.0207C15.8975 37.8101 22.2098 44.1234 30.0006 44.1234C37.7914 44.1234 44.1037 37.8113 44.1037 30.0207ZM43.8367 14.0011C42.5773 14.0011 41.5672 15.0213 41.5672 16.2706C41.5672 17.5299 42.5773 18.54 43.8367 18.54C45.086 18.54 46.1062 17.5288 46.1062 16.2706C46.1062 15.0224 45.086 14.0011 43.8367 14.0011ZM18.4729 10.7405H41.5294C45.8013 10.7405 49.2812 14.2303 49.2812 18.4922V41.548C49.2812 45.8199 45.8013 49.3008 41.5294 49.3008H18.4729C14.2109 49.3008 10.7199 45.8199 10.7199 41.548V18.4922C10.7199 14.2303 14.2098 10.7405 18.4729 10.7405ZM41.5294 8.15625H18.4729C12.7892 8.15625 8.13672 12.8097 8.13672 18.4922V41.548C8.13672 47.2405 12.7903 51.8851 18.4729 51.8851H41.5294C47.222 51.8851 51.8655 47.2416 51.8655 41.548V18.4922C51.8655 12.8097 47.222 8.15625 41.5294 8.15625ZM18.8245 30.0207C18.8245 23.8509 23.8307 18.8448 30.0006 18.8448C36.1705 18.8448 41.1767 23.8509 41.1767 30.0207C41.1767 36.1904 36.1705 41.1954 30.0006 41.1954C23.8307 41.1954 18.8245 36.1904 18.8245 30.0207Z" fill="white"/>
<defs>
<linearGradient id="paint0_linear_101_19870" x1="50.0969" y1="48.2213" x2="9.04063" y2="11.0263" gradientUnits="userSpaceOnUse">
<stop stop-color="#FEC053"/>
<stop offset="0.3273" stop-color="#F2203E"/>
<stop offset="0.6485" stop-color="#B729A8"/>
<stop offset="1" stop-color="#5342D6"/>
</linearGradient>
</defs>
</svg>
