<svg width="60" height="61" viewBox="0 0 60 61" fill="none" xmlns="http://www.w3.org/2000/svg">
<path d="M30 60.0156C46.5685 60.0156 60 46.5842 60 30.0156C60 13.4471 46.5685 0.015625 30 0.015625C13.4315 0.015625 0 13.4471 0 30.0156C0 46.5842 13.4315 60.0156 30 60.0156Z" fill="url(#paint0_linear_101_19876)"/>
<path d="M20.3379 33.3348L23.8884 42.7309L39.6599 21.375L20.3379 33.3348Z" fill="#C2DAEC"/>
<path d="M24.7409 34.5938L24.4062 41.7124L32.5418 35.0946L24.7409 34.5938Z" fill="#9FCDE2"/>
<path d="M43.4079 17.3693L12.8378 28.8797C11.9757 29.2055 11.9958 30.4252 12.8739 30.7153L20.757 33.3535L38.7085 21.8749L24.4901 35.0143L35.5609 43.3381C36.7117 44.2043 38.3837 43.6202 38.7326 42.2336L44.715 18.5176C44.9075 17.7547 44.1537 17.0912 43.4079 17.3693Z" fill="#ECF8FD"/>
<defs>
<linearGradient id="paint0_linear_101_19876" x1="8.78842" y1="8.80532" x2="51.2126" y2="51.2295" gradientUnits="userSpaceOnUse">
<stop stop-color="#00AFE5"/>
<stop offset="1" stop-color="#0094D4"/>
</linearGradient>
</defs>
</svg>
